<mxfile host="app.diagrams.net" modified="2023-10-17T04:46:29.180Z" agent="Mozilla/5.0 (Windows NT 10.0; Win64; x64) AppleWebKit/537.36 (KHTML, like Gecko) Chrome/118.0.0.0 Safari/537.36" etag="L19xt9sC3MIWV9bhok9M" version="22.0.4" type="github">
  <diagram id="R2lEEEUBdFMjLlhIrx00" name="Page-1">
    <mxGraphModel dx="1050" dy="623" grid="1" gridSize="10" guides="1" tooltips="1" connect="1" arrows="1" fold="1" page="1" pageScale="1" pageWidth="850" pageHeight="1100" math="0" shadow="0" extFonts="Permanent Marker^https://fonts.googleapis.com/css?family=Permanent+Marker">
      <root>
        <mxCell id="0" />
        <mxCell id="1" parent="0" />
        <mxCell id="sRpCe-yu5LOxPwtg6V8U-10" value="username" style="ellipse;whiteSpace=wrap;html=1;align=center;" parent="1" vertex="1">
          <mxGeometry x="40" y="82" width="100" height="40" as="geometry" />
        </mxCell>
        <mxCell id="sRpCe-yu5LOxPwtg6V8U-11" value="email_id" style="ellipse;whiteSpace=wrap;html=1;align=center;" parent="1" vertex="1">
          <mxGeometry x="40" y="134" width="100" height="40" as="geometry" />
        </mxCell>
        <mxCell id="sRpCe-yu5LOxPwtg6V8U-12" value="password_hash" style="ellipse;whiteSpace=wrap;html=1;align=center;" parent="1" vertex="1">
          <mxGeometry x="40" y="186" width="100" height="40" as="geometry" />
        </mxCell>
        <mxCell id="sRpCe-yu5LOxPwtg6V8U-13" value="salt" style="ellipse;whiteSpace=wrap;html=1;align=center;" parent="1" vertex="1">
          <mxGeometry x="40" y="238" width="100" height="40" as="geometry" />
        </mxCell>
        <mxCell id="sRpCe-yu5LOxPwtg6V8U-14" value="created_at" style="ellipse;whiteSpace=wrap;html=1;align=center;" parent="1" vertex="1">
          <mxGeometry x="40" y="290" width="100" height="40" as="geometry" />
        </mxCell>
        <mxCell id="sRpCe-yu5LOxPwtg6V8U-27" value="created_at" style="ellipse;whiteSpace=wrap;html=1;align=center;" parent="1" vertex="1">
          <mxGeometry x="1030" y="560" width="100" height="40" as="geometry" />
        </mxCell>
        <mxCell id="sRpCe-yu5LOxPwtg6V8U-30" value="like_id" style="ellipse;whiteSpace=wrap;html=1;align=center;" parent="1" vertex="1">
          <mxGeometry x="700" y="40" width="100" height="40" as="geometry" />
        </mxCell>
        <mxCell id="sRpCe-yu5LOxPwtg6V8U-31" value="removed" style="ellipse;whiteSpace=wrap;html=1;align=center;direction=west;" parent="1" vertex="1">
          <mxGeometry x="700" y="144" width="100" height="40" as="geometry" />
        </mxCell>
        <mxCell id="sRpCe-yu5LOxPwtg6V8U-33" value="User" style="rounded=1;arcSize=10;whiteSpace=wrap;html=1;align=center;" parent="1" vertex="1">
          <mxGeometry x="200" y="160" width="100" height="40" as="geometry" />
        </mxCell>
        <mxCell id="sRpCe-yu5LOxPwtg6V8U-36" value="Like" style="shape=ext;margin=3;double=1;whiteSpace=wrap;html=1;align=center;" parent="1" vertex="1">
          <mxGeometry x="560" y="92" width="100" height="40" as="geometry" />
        </mxCell>
        <mxCell id="sRpCe-yu5LOxPwtg6V8U-37" value="Comment" style="shape=ext;margin=3;double=1;whiteSpace=wrap;html=1;align=center;" parent="1" vertex="1">
          <mxGeometry x="560" y="331" width="100" height="40" as="geometry" />
        </mxCell>
        <mxCell id="sRpCe-yu5LOxPwtg6V8U-42" value="comment_id" style="ellipse;whiteSpace=wrap;html=1;align=center;fontStyle=4;" parent="1" vertex="1">
          <mxGeometry x="920" y="390" width="100" height="40" as="geometry" />
        </mxCell>
        <mxCell id="IwPXHoNAorRm5awaYg3U-6" value="" style="endArrow=none;html=1;rounded=0;entryX=0;entryY=0.5;entryDx=0;entryDy=0;exitX=1;exitY=1;exitDx=0;exitDy=0;" parent="1" source="sRpCe-yu5LOxPwtg6V8U-37" target="sRpCe-yu5LOxPwtg6V8U-27" edge="1">
          <mxGeometry relative="1" as="geometry">
            <mxPoint x="380" y="301" as="sourcePoint" />
            <mxPoint x="540" y="301" as="targetPoint" />
          </mxGeometry>
        </mxCell>
        <mxCell id="QnJ6NagRt4sesBqJA9xz-1" value="user_id" style="ellipse;whiteSpace=wrap;html=1;align=center;fontStyle=4;" vertex="1" parent="1">
          <mxGeometry x="40" y="30" width="100" height="40" as="geometry" />
        </mxCell>
        <mxCell id="QnJ6NagRt4sesBqJA9xz-2" value="created_at" style="ellipse;whiteSpace=wrap;html=1;align=center;" vertex="1" parent="1">
          <mxGeometry x="700" y="92" width="100" height="40" as="geometry" />
        </mxCell>
        <mxCell id="QnJ6NagRt4sesBqJA9xz-3" value="" style="endArrow=none;html=1;rounded=0;exitX=1;exitY=0;exitDx=0;exitDy=0;entryX=0;entryY=0.5;entryDx=0;entryDy=0;" edge="1" parent="1" source="sRpCe-yu5LOxPwtg6V8U-36" target="sRpCe-yu5LOxPwtg6V8U-30">
          <mxGeometry relative="1" as="geometry">
            <mxPoint x="690" y="231" as="sourcePoint" />
            <mxPoint x="850" y="231" as="targetPoint" />
          </mxGeometry>
        </mxCell>
        <mxCell id="QnJ6NagRt4sesBqJA9xz-4" value="" style="endArrow=none;html=1;rounded=0;entryX=0;entryY=0.5;entryDx=0;entryDy=0;exitX=1;exitY=0.5;exitDx=0;exitDy=0;" edge="1" parent="1" source="sRpCe-yu5LOxPwtg6V8U-36" target="QnJ6NagRt4sesBqJA9xz-2">
          <mxGeometry relative="1" as="geometry">
            <mxPoint x="680" y="111" as="sourcePoint" />
            <mxPoint x="710" y="70" as="targetPoint" />
          </mxGeometry>
        </mxCell>
        <mxCell id="QnJ6NagRt4sesBqJA9xz-5" value="" style="endArrow=none;html=1;rounded=0;exitX=1;exitY=1;exitDx=0;exitDy=0;entryX=1;entryY=0.5;entryDx=0;entryDy=0;" edge="1" parent="1" source="sRpCe-yu5LOxPwtg6V8U-36" target="sRpCe-yu5LOxPwtg6V8U-31">
          <mxGeometry relative="1" as="geometry">
            <mxPoint x="680" y="112" as="sourcePoint" />
            <mxPoint x="720" y="80" as="targetPoint" />
          </mxGeometry>
        </mxCell>
        <mxCell id="QnJ6NagRt4sesBqJA9xz-6" value="text" style="ellipse;whiteSpace=wrap;html=1;align=center;" vertex="1" parent="1">
          <mxGeometry x="700" y="304" width="100" height="40" as="geometry" />
        </mxCell>
        <mxCell id="QnJ6NagRt4sesBqJA9xz-7" value="created_at" style="ellipse;whiteSpace=wrap;html=1;align=center;" vertex="1" parent="1">
          <mxGeometry x="700" y="358" width="100" height="40" as="geometry" />
        </mxCell>
        <mxCell id="QnJ6NagRt4sesBqJA9xz-8" value="" style="endArrow=none;html=1;rounded=0;exitX=1;exitY=0.75;exitDx=0;exitDy=0;entryX=0;entryY=0.5;entryDx=0;entryDy=0;" edge="1" parent="1" source="sRpCe-yu5LOxPwtg6V8U-37" target="QnJ6NagRt4sesBqJA9xz-7">
          <mxGeometry relative="1" as="geometry">
            <mxPoint x="690" y="231" as="sourcePoint" />
            <mxPoint x="850" y="231" as="targetPoint" />
          </mxGeometry>
        </mxCell>
        <mxCell id="QnJ6NagRt4sesBqJA9xz-9" value="" style="endArrow=none;html=1;rounded=0;exitX=1;exitY=0.25;exitDx=0;exitDy=0;entryX=0;entryY=0.5;entryDx=0;entryDy=0;" edge="1" parent="1" source="sRpCe-yu5LOxPwtg6V8U-37" target="QnJ6NagRt4sesBqJA9xz-6">
          <mxGeometry relative="1" as="geometry">
            <mxPoint x="650" y="371" as="sourcePoint" />
            <mxPoint x="710" y="388" as="targetPoint" />
          </mxGeometry>
        </mxCell>
        <mxCell id="QnJ6NagRt4sesBqJA9xz-10" value="" style="endArrow=none;html=1;rounded=0;exitX=1;exitY=0;exitDx=0;exitDy=0;entryX=0;entryY=0.5;entryDx=0;entryDy=0;" edge="1" parent="1" source="sRpCe-yu5LOxPwtg6V8U-37" target="sRpCe-yu5LOxPwtg6V8U-42">
          <mxGeometry relative="1" as="geometry">
            <mxPoint x="660" y="381" as="sourcePoint" />
            <mxPoint x="720" y="398" as="targetPoint" />
          </mxGeometry>
        </mxCell>
        <mxCell id="QnJ6NagRt4sesBqJA9xz-11" value="" style="endArrow=none;html=1;rounded=0;exitX=1;exitY=0.5;exitDx=0;exitDy=0;entryX=0.5;entryY=0;entryDx=0;entryDy=0;" edge="1" parent="1" source="QnJ6NagRt4sesBqJA9xz-1" target="sRpCe-yu5LOxPwtg6V8U-33">
          <mxGeometry relative="1" as="geometry">
            <mxPoint x="430" y="190" as="sourcePoint" />
            <mxPoint x="590" y="190" as="targetPoint" />
          </mxGeometry>
        </mxCell>
        <mxCell id="QnJ6NagRt4sesBqJA9xz-12" value="" style="endArrow=none;html=1;rounded=0;exitX=1;exitY=0.5;exitDx=0;exitDy=0;entryX=0.25;entryY=1;entryDx=0;entryDy=0;" edge="1" parent="1" source="sRpCe-yu5LOxPwtg6V8U-13" target="sRpCe-yu5LOxPwtg6V8U-33">
          <mxGeometry relative="1" as="geometry">
            <mxPoint x="150" y="60" as="sourcePoint" />
            <mxPoint x="260" y="170" as="targetPoint" />
          </mxGeometry>
        </mxCell>
        <mxCell id="QnJ6NagRt4sesBqJA9xz-13" value="" style="endArrow=none;html=1;rounded=0;exitX=1;exitY=0.5;exitDx=0;exitDy=0;entryX=0;entryY=1;entryDx=0;entryDy=0;" edge="1" parent="1" source="sRpCe-yu5LOxPwtg6V8U-12" target="sRpCe-yu5LOxPwtg6V8U-33">
          <mxGeometry relative="1" as="geometry">
            <mxPoint x="160" y="70" as="sourcePoint" />
            <mxPoint x="270" y="180" as="targetPoint" />
          </mxGeometry>
        </mxCell>
        <mxCell id="QnJ6NagRt4sesBqJA9xz-14" value="" style="endArrow=none;html=1;rounded=0;exitX=1;exitY=0.5;exitDx=0;exitDy=0;entryX=0;entryY=0;entryDx=0;entryDy=0;" edge="1" parent="1" source="sRpCe-yu5LOxPwtg6V8U-11" target="sRpCe-yu5LOxPwtg6V8U-33">
          <mxGeometry relative="1" as="geometry">
            <mxPoint x="170" y="80" as="sourcePoint" />
            <mxPoint x="280" y="190" as="targetPoint" />
          </mxGeometry>
        </mxCell>
        <mxCell id="QnJ6NagRt4sesBqJA9xz-15" value="" style="endArrow=none;html=1;rounded=0;exitX=1;exitY=0.5;exitDx=0;exitDy=0;entryX=0.25;entryY=0;entryDx=0;entryDy=0;" edge="1" parent="1" source="sRpCe-yu5LOxPwtg6V8U-10" target="sRpCe-yu5LOxPwtg6V8U-33">
          <mxGeometry relative="1" as="geometry">
            <mxPoint x="180" y="90" as="sourcePoint" />
            <mxPoint x="290" y="200" as="targetPoint" />
          </mxGeometry>
        </mxCell>
        <mxCell id="QnJ6NagRt4sesBqJA9xz-16" value="" style="endArrow=none;html=1;rounded=0;exitX=1;exitY=0.5;exitDx=0;exitDy=0;entryX=0.5;entryY=1;entryDx=0;entryDy=0;" edge="1" parent="1" source="sRpCe-yu5LOxPwtg6V8U-14" target="sRpCe-yu5LOxPwtg6V8U-33">
          <mxGeometry relative="1" as="geometry">
            <mxPoint x="150" y="268" as="sourcePoint" />
            <mxPoint x="235" y="210" as="targetPoint" />
          </mxGeometry>
        </mxCell>
        <mxCell id="VMuPDI3IVHIFIsVgMCY_-1" value="Session" style="shape=ext;margin=3;double=1;whiteSpace=wrap;html=1;align=center;" vertex="1" parent="1">
          <mxGeometry x="530" y="600" width="100" height="40" as="geometry" />
        </mxCell>
        <mxCell id="aW8OuXkmpbnqlUIxk7bf-1" value="Actor" style="shape=umlActor;verticalLabelPosition=bottom;verticalAlign=top;html=1;outlineConnect=0;" vertex="1" parent="1">
          <mxGeometry x="770" y="260" width="30" height="60" as="geometry" />
        </mxCell>
        <mxCell id="VMuPDI3IVHIFIsVgMCY_-2" value="expires_at" style="ellipse;whiteSpace=wrap;html=1;align=center;" vertex="1" parent="1">
          <mxGeometry x="530" y="670" width="100" height="40" as="geometry" />
        </mxCell>
        <mxCell id="VMuPDI3IVHIFIsVgMCY_-3" value="user_id" style="ellipse;whiteSpace=wrap;html=1;align=center;" vertex="1" parent="1">
          <mxGeometry x="650" y="640" width="100" height="40" as="geometry" />
        </mxCell>
        <mxCell id="VMuPDI3IVHIFIsVgMCY_-4" value="token" style="ellipse;whiteSpace=wrap;html=1;align=center;" vertex="1" parent="1">
          <mxGeometry x="650" y="560" width="100" height="40" as="geometry" />
        </mxCell>
        <mxCell id="VMuPDI3IVHIFIsVgMCY_-5" value="id" style="ellipse;whiteSpace=wrap;html=1;align=center;" vertex="1" parent="1">
          <mxGeometry x="530" y="530" width="100" height="40" as="geometry" />
        </mxCell>
        <mxCell id="VMuPDI3IVHIFIsVgMCY_-6" value="created_at" style="ellipse;whiteSpace=wrap;html=1;align=center;" vertex="1" parent="1">
          <mxGeometry x="520" y="440" width="100" height="40" as="geometry" />
        </mxCell>
        <mxCell id="VMuPDI3IVHIFIsVgMCY_-7" value="author_id " style="ellipse;whiteSpace=wrap;html=1;align=center;" vertex="1" parent="1">
          <mxGeometry x="640" y="420" width="100" height="40" as="geometry" />
        </mxCell>
        <mxCell id="VMuPDI3IVHIFIsVgMCY_-8" value="content" style="ellipse;whiteSpace=wrap;html=1;align=center;" vertex="1" parent="1">
          <mxGeometry x="660" y="360" width="100" height="40" as="geometry" />
        </mxCell>
        <mxCell id="VMuPDI3IVHIFIsVgMCY_-9" value="title" style="ellipse;whiteSpace=wrap;html=1;align=center;" vertex="1" parent="1">
          <mxGeometry x="640" y="300" width="100" height="40" as="geometry" />
        </mxCell>
        <mxCell id="VMuPDI3IVHIFIsVgMCY_-10" value="id" style="ellipse;whiteSpace=wrap;html=1;align=center;" vertex="1" parent="1">
          <mxGeometry x="520" y="280" width="100" height="40" as="geometry" />
        </mxCell>
        <mxCell id="VMuPDI3IVHIFIsVgMCY_-12" value="" style="endArrow=none;html=1;rounded=0;entryX=0.5;entryY=1;entryDx=0;entryDy=0;exitX=0.5;exitY=0;exitDx=0;exitDy=0;" edge="1" parent="1" source="VMuPDI3IVHIFIsVgMCY_-1" target="VMuPDI3IVHIFIsVgMCY_-5">
          <mxGeometry relative="1" as="geometry">
            <mxPoint x="390" y="579.5" as="sourcePoint" />
            <mxPoint x="550" y="579.5" as="targetPoint" />
          </mxGeometry>
        </mxCell>
        <mxCell id="VMuPDI3IVHIFIsVgMCY_-13" value="" style="endArrow=none;html=1;rounded=0;entryX=0.5;entryY=0;entryDx=0;entryDy=0;exitX=0.5;exitY=1;exitDx=0;exitDy=0;" edge="1" parent="1" source="VMuPDI3IVHIFIsVgMCY_-1" target="VMuPDI3IVHIFIsVgMCY_-2">
          <mxGeometry relative="1" as="geometry">
            <mxPoint x="400" y="659.5" as="sourcePoint" />
            <mxPoint x="560" y="659.5" as="targetPoint" />
          </mxGeometry>
        </mxCell>
        <mxCell id="VMuPDI3IVHIFIsVgMCY_-14" value="" style="endArrow=none;html=1;rounded=0;entryX=0;entryY=0.5;entryDx=0;entryDy=0;exitX=1;exitY=1;exitDx=0;exitDy=0;" edge="1" parent="1" source="VMuPDI3IVHIFIsVgMCY_-1" target="VMuPDI3IVHIFIsVgMCY_-3">
          <mxGeometry relative="1" as="geometry">
            <mxPoint x="500" y="659.5" as="sourcePoint" />
            <mxPoint x="640" y="660" as="targetPoint" />
          </mxGeometry>
        </mxCell>
        <mxCell id="VMuPDI3IVHIFIsVgMCY_-15" value="" style="endArrow=none;html=1;rounded=0;entryX=0;entryY=0.5;entryDx=0;entryDy=0;exitX=1;exitY=0;exitDx=0;exitDy=0;" edge="1" parent="1" source="VMuPDI3IVHIFIsVgMCY_-1" target="VMuPDI3IVHIFIsVgMCY_-4">
          <mxGeometry relative="1" as="geometry">
            <mxPoint x="500" y="590" as="sourcePoint" />
            <mxPoint x="660" y="590" as="targetPoint" />
          </mxGeometry>
        </mxCell>
        <mxCell id="VMuPDI3IVHIFIsVgMCY_-16" value="" style="endArrow=none;html=1;rounded=0;entryX=0.5;entryY=0;entryDx=0;entryDy=0;exitX=0.5;exitY=1;exitDx=0;exitDy=0;" edge="1" parent="1" target="VMuPDI3IVHIFIsVgMCY_-6">
          <mxGeometry relative="1" as="geometry">
            <mxPoint x="400" y="419.5" as="sourcePoint" />
            <mxPoint x="560" y="419.5" as="targetPoint" />
          </mxGeometry>
        </mxCell>
        <mxCell id="VMuPDI3IVHIFIsVgMCY_-17" value="" style="endArrow=none;html=1;rounded=0;exitX=0.75;exitY=1;exitDx=0;exitDy=0;" edge="1" parent="1">
          <mxGeometry relative="1" as="geometry">
            <mxPoint x="480" y="439" as="sourcePoint" />
            <mxPoint x="640" y="439" as="targetPoint" />
          </mxGeometry>
        </mxCell>
        <mxCell id="VMuPDI3IVHIFIsVgMCY_-18" value="" style="endArrow=none;html=1;rounded=0;exitX=1;exitY=0.5;exitDx=0;exitDy=0;" edge="1" parent="1">
          <mxGeometry relative="1" as="geometry">
            <mxPoint x="510" y="379.5" as="sourcePoint" />
            <mxPoint x="660" y="380" as="targetPoint" />
          </mxGeometry>
        </mxCell>
        <mxCell id="VMuPDI3IVHIFIsVgMCY_-19" value="" style="endArrow=none;html=1;rounded=0;entryX=0.02;entryY=0.675;entryDx=0;entryDy=0;entryPerimeter=0;exitX=0.75;exitY=0;exitDx=0;exitDy=0;" edge="1" parent="1" target="VMuPDI3IVHIFIsVgMCY_-9">
          <mxGeometry relative="1" as="geometry">
            <mxPoint x="510" y="350" as="sourcePoint" />
            <mxPoint x="670" y="350" as="targetPoint" />
          </mxGeometry>
        </mxCell>
        <mxCell id="VMuPDI3IVHIFIsVgMCY_-20" value="" style="endArrow=none;html=1;rounded=0;entryX=0.5;entryY=1;entryDx=0;entryDy=0;exitX=0.5;exitY=0;exitDx=0;exitDy=0;" edge="1" parent="1" target="VMuPDI3IVHIFIsVgMCY_-10">
          <mxGeometry relative="1" as="geometry">
            <mxPoint x="320" y="630" as="sourcePoint" />
            <mxPoint x="480" y="630" as="targetPoint" />
          </mxGeometry>
        </mxCell>
      </root>
    </mxGraphModel>
  </diagram>
</mxfile>
